<?xml version="1.0" encoding="utf-8"?>
<!-- Generator: Adobe Illustrator 26.5.2, SVG Export Plug-In . SVG Version: 6.00 Build 0)  -->
<svg version="1.1" id="Asset_Photos" xmlns="http://www.w3.org/2000/svg" xmlns:xlink="http://www.w3.org/1999/xlink" x="0px"
	 y="0px" viewBox="0 0 741.4 766" style="enable-background:new 0 0 741.4 766;" xml:space="preserve">
<style type="text/css">
	.st0{fill:#231F20;}
	.st1{fill:none;stroke:#231F20;stroke-width:15;stroke-miterlimit:10;}
	.st2{fill:none;stroke:#231F20;stroke-width:7;stroke-miterlimit:10;}
	.st3{fill:none;stroke:#231F20;stroke-width:10;stroke-miterlimit:10;}
	.st4{fill:#231F20;stroke:#231F20;stroke-miterlimit:10;}
	.st5{fill:none;stroke:#231F20;stroke-width:12;stroke-miterlimit:10;}
	.st6{fill:none;stroke:#231F20;stroke-width:3;stroke-miterlimit:10;}
</style>
<g id="Clock_-_B_W">
	<path class="st0" d="M374,19.2c-193.3,0-350,156.7-350,350c0,100,42,190.3,109.3,254.1v56.6v2.8c0,0.1,0,0.1,0,0.2c0,0,0,0.1,0,0.1
		v9.8c0,0,0,0.1,0,0.1c0,25.9,107.8,46.9,240.7,46.9s240.7-21,240.7-46.9h0v-10.1v-3v-56.6c67.3-63.8,109.2-154,109.2-254
		C724,175.9,567.3,19.2,374,19.2z M381,642c-154.6,0-280-125.4-280-280S226.4,82,381,82s280,125.4,280,280S535.6,642,381,642z"/>
	<circle class="st1" cx="381.1" cy="362.2" r="287.5"/>
	<line class="st2" x1="412.1" y1="385.3" x2="381.1" y2="362.3"/>
	<line class="st3" x1="381.1" y1="362.3" x2="347.4" y2="380.3"/>
	<circle class="st4" cx="381.1" cy="362.3" r="12"/>
	<path class="st4" d="M360.4,380.3c0-7.2-5.8-13-13-13c-1.8,0-3.5,0.4-5.1,1l0,0l-0.6,0.3c-0.5,0.2-1,0.5-1.4,0.8l-93.2,52.4
		c-8.6,4.8-7.4,7.5,1.9,4.4L349.9,393C355.9,391.9,360.4,386.6,360.4,380.3z"/>
	<path class="st4" d="M565,493.4L419.8,374.7l-0.1,0.1c-2.1-1.6-4.8-2.5-7.6-2.5c-7.2,0-13,5.8-13,13c0,4.3,2.1,8.1,5.4,10.5
		l-0.1,0.1l157.8,101.4C576.4,506.4,578.1,504.1,565,493.4L565,493.4z"/>
	<line class="st5" x1="550.7" y1="259.1" x2="602.6" y2="229.1"/>
	<line class="st5" x1="271.7" y1="184.1" x2="241.7" y2="132.1"/>
	<line class="st5" x1="196.5" y1="258.4" x2="144.5" y2="228.4"/>
	<line class="st5" x1="108" y1="362.2" x2="168" y2="362.2"/>
	<line class="st5" x1="144.1" y1="495.4" x2="196" y2="465.4"/>
	<line class="st5" x1="241.4" y1="591.9" x2="271.4" y2="540"/>
	<line class="st5" x1="374" y1="627.7" x2="374" y2="567.7"/>
	<line class="st5" x1="507.1" y1="591.7" x2="477.1" y2="539.8"/>
	<line class="st5" x1="605" y1="494.1" x2="553" y2="464.1"/>
	<line class="st5" x1="579" y1="361.3" x2="639" y2="361.3"/>
	<line class="st5" x1="477.2" y1="183.4" x2="507.2" y2="131.5"/>
	<line class="st5" x1="374" y1="157.5" x2="374" y2="97.5"/>
	<line class="st6" x1="269.2" y1="179.7" x2="244.2" y2="136.4"/>
	<line class="st6" x1="192.1" y1="255.9" x2="148.8" y2="230.9"/>
	<line class="st6" x1="113" y1="362.2" x2="163" y2="362.2"/>
	<line class="st6" x1="148.4" y1="492.9" x2="191.7" y2="467.9"/>
	<line class="st6" x1="243.9" y1="587.6" x2="268.9" y2="544.3"/>
	<line class="st6" x1="374" y1="623.7" x2="374" y2="573.7"/>
	<line class="st6" x1="504.7" y1="587.6" x2="479.7" y2="544.3"/>
	<line class="st6" x1="600.7" y1="491.6" x2="557.3" y2="466.6"/>
	<line class="st6" x1="584" y1="361.6" x2="634" y2="361.6"/>
	<line class="st6" x1="555" y1="256.6" x2="598.3" y2="231.6"/>
	<line class="st6" x1="479.8" y1="179.1" x2="504.8" y2="135.8"/>
	<line class="st6" x1="374" y1="103.2" x2="374" y2="153.2"/>
</g>
</svg>
