<?xml version="1.0" encoding="UTF-8"?>
<!--Generator: Apple Native CoreSVG 175.5-->
<!DOCTYPE svg
PUBLIC "-//W3C//DTD SVG 1.1//EN"
       "http://www.w3.org/Graphics/SVG/1.1/DTD/svg11.dtd">
<svg version="1.1" xmlns="http://www.w3.org/2000/svg" xmlns:xlink="http://www.w3.org/1999/xlink" width="28.1896" height="17.6996">
 <g>
  <rect height="17.6996" opacity="0" width="28.1896" x="0" y="0"/>
  <path d="M0 13.9276C0 16.2152 1.4905 17.6996 3.7179 17.6996C4.85334 17.6996 5.9681 17.2117 6.79856 16.1985L8.56841 14.0506C8.81572 13.7514 9.11057 13.6039 9.40159 13.6039L18.7776 13.6039C19.0769 13.6039 19.3717 13.7514 19.6212 14.0506L21.391 16.1985C22.2111 17.2117 23.3259 17.6996 24.4614 17.6996C26.6991 17.6996 28.1896 16.2152 28.1896 13.9276C28.1896 12.9622 27.9632 11.8348 27.5872 10.5699C26.989 8.57403 25.9445 5.85143 24.9393 3.73898C24.1066 1.98049 23.6727 1.17746 21.6114 0.714493C19.7668 0.296956 17.2184 0.00844022 14.0896 0.00844022C10.9712 0.00844022 8.42069 0.296956 6.57817 0.714493C4.5168 1.17746 4.08296 1.98049 3.24004 3.73898C2.24508 5.85143 1.20046 8.57403 0.602352 10.5699C0.2264 11.8348 0 12.9622 0 13.9276ZM1.49824 13.9899C1.49824 13.3751 1.63109 12.6315 1.9411 11.562C2.59903 9.32471 3.73065 6.41557 4.71738 4.26135C5.19512 3.21654 5.45719 2.57411 6.72307 2.2852C8.49907 1.86975 11.0041 1.57914 14.0896 1.57914C17.173 1.57914 19.6905 1.86975 21.4561 2.2852C22.722 2.57621 22.9841 3.21654 23.4722 4.26135C24.4713 6.41557 25.5595 9.33506 26.2381 11.562C26.5584 12.6315 26.6912 13.3751 26.6912 13.9899C26.6912 15.3449 25.7418 16.191 24.4821 16.191C23.7464 16.191 23.0212 15.7962 22.4497 15.1084L20.6158 12.8903C20.155 12.3133 19.7583 12.0332 18.8541 12.0332L9.33547 12.0332C8.43125 12.0332 8.03459 12.3133 7.5634 12.8903L5.72952 15.1084C5.16627 15.7962 4.44313 16.191 3.69719 16.191C2.43742 16.191 1.49824 15.3449 1.49824 13.9899Z" fill="#66d4cf"/>
  <path d="M6.1963 6.89543C6.1963 7.403 6.49477 7.71182 7.00446 7.71182L8.75181 7.71182L8.75181 9.41816C8.75181 9.91751 9.03991 10.2263 9.5268 10.2263C10.0033 10.2263 10.2914 9.91751 10.2914 9.41816L10.2914 7.71182L11.956 7.71182C12.4967 7.71182 12.8159 7.403 12.8159 6.89543C12.8159 6.40853 12.4967 6.09974 11.956 6.09974L10.2914 6.09974L10.2914 4.3934C10.2914 3.89406 10.0033 3.58524 9.5268 3.58524C9.03991 3.58524 8.75181 3.89406 8.75181 4.3934L8.75181 6.09974L7.00446 6.09974C6.49477 6.09974 6.1963 6.40853 6.1963 6.89543ZM20.164 6.77001C20.9548 6.77001 21.5692 6.15983 21.5692 5.36694C21.5692 4.57196 20.9548 3.95142 20.164 3.95142C19.3815 3.95142 18.7567 4.57196 18.7567 5.36694C18.7567 6.15983 19.3815 6.77001 20.164 6.77001ZM17.2867 9.65924C18.0795 9.65924 18.6939 9.0573 18.6939 8.26441C18.6939 7.4612 18.0795 6.84889 17.2867 6.84889C16.5041 6.84889 15.8918 7.4612 15.8918 8.26441C15.8918 9.0573 16.5041 9.65924 17.2867 9.65924Z" fill="#bf5af2"/>
 </g>
</svg>
